<svg width="121" height="21" viewBox="0 0 121 21" fill="none" xmlns="http://www.w3.org/2000/svg">
    <path d="M108.479 10.252C108.479 6.886 110.965 4.4 114.265 4.4C117.653 4.4 120.117 6.776 120.117 10.252C120.117 13.684 117.653 16.06 114.265 16.06C110.965 16.06 108.479 13.574 108.479 10.252ZM110.239 10.23C110.239 12.628 111.977 14.388 114.265 14.388C116.707 14.388 118.357 12.716 118.357 10.23C118.357 7.744 116.685 6.05 114.265 6.05C111.955 6.05 110.239 7.832 110.239 10.23Z" fill="#F3F6FE"/>
    <path d="M103.879 0.945999C103.879 0.374 104.253 0 104.803 0C105.375 0 105.749 0.374 105.749 0.945999C105.749 1.496 105.375 1.87 104.803 1.87C104.253 1.87 103.879 1.496 103.879 0.945999ZM105.683 15.73H103.923V4.73H105.683V15.73Z" fill="#F3F6FE"/>
    <path d="M98.9609 14.938C98.9609 14.3 99.4009 13.86 100.039 13.86C100.743 13.86 101.183 14.3 101.183 14.938C101.183 15.642 100.743 16.06 100.039 16.06C99.4009 16.06 98.9609 15.642 98.9609 14.938Z" fill="#F3F6FE"/>
    <path d="M97.2465 12.804C97.2465 14.652 95.4645 16.06 92.9125 16.06C90.1185 16.06 88.1605 14.872 87.8965 12.628H89.5685C89.8105 13.992 90.9545 14.718 92.9345 14.718C94.4305 14.718 95.5745 13.882 95.5745 12.826C95.5745 9.57 88.2485 12.056 88.2485 7.634C88.2485 5.852 89.9865 4.4 92.5385 4.4C95.2445 4.4 96.9605 5.698 97.1365 7.876H95.5085C95.4205 6.666 94.4745 5.72 92.5165 5.72C91.1085 5.72 89.9425 6.556 89.9425 7.612C89.9425 10.758 97.2465 8.096 97.2465 12.804Z" fill="#F3F6FE"/>
    <path d="M85.2483 0.329998V15.73H83.4883V0.329998H85.2483Z" fill="#F3F6FE"/>
    <path d="M69.291 10.252C69.291 6.886 71.777 4.4 75.077 4.4C78.465 4.4 80.929 6.776 80.929 10.252C80.929 13.684 78.465 16.06 75.077 16.06C71.777 16.06 69.291 13.574 69.291 10.252ZM71.051 10.23C71.051 12.628 72.789 14.388 75.077 14.388C77.519 14.388 79.169 12.716 79.169 10.23C79.169 7.744 77.497 6.05 75.077 6.05C72.767 6.05 71.051 7.832 71.051 10.23Z" fill="#F3F6FE"/>
    <path d="M55.8418 10.252C55.8418 6.886 58.3278 4.4 61.6278 4.4C65.0158 4.4 67.4798 6.776 67.4798 10.252C67.4798 13.684 65.0158 16.06 61.6278 16.06C58.3278 16.06 55.8418 13.574 55.8418 10.252ZM57.6018 10.23C57.6018 12.628 59.3398 14.388 61.6278 14.388C64.0698 14.388 65.7198 12.716 65.7198 10.23C65.7198 7.744 64.0478 6.05 61.6278 6.05C59.3178 6.05 57.6018 7.832 57.6018 10.23Z" fill="#F3F6FE"/>
    <path d="M42.6465 4.73H44.1645L44.3845 6.908C45.3085 5.346 46.8705 4.4 48.7185 4.4C51.7105 4.4 53.9545 6.886 53.9545 10.208C53.9545 13.574 51.7325 16.06 48.7185 16.06C46.8925 16.06 45.3085 15.136 44.4065 13.552V20.13H42.6465V4.73ZM52.1945 10.23C52.1945 7.766 50.5225 5.984 48.2565 5.984C45.9465 5.984 44.4065 7.722 44.4065 10.23C44.4065 12.716 45.9905 14.454 48.2565 14.454C50.5225 14.454 52.1945 12.694 52.1945 10.23Z" fill="#F3F6FE"/>
    <path d="M32.8694 11.066V15.73H31.1094V0.329998H32.8694V9.438H34.8274L38.4134 4.73H40.3934L36.1474 10.23L40.9214 15.73H38.8534L34.8714 11.066H32.8694Z" fill="#F3F6FE"/>
    <path d="M28.5395 12.804C28.5395 14.652 26.7575 16.06 24.2055 16.06C21.4115 16.06 19.4535 14.872 19.1895 12.628H20.8615C21.1035 13.992 22.2475 14.718 24.2275 14.718C25.7235 14.718 26.8675 13.882 26.8675 12.826C26.8675 9.57 19.5415 12.056 19.5415 7.634C19.5415 5.852 21.2795 4.4 23.8315 4.4C26.5375 4.4 28.2535 5.698 28.4295 7.876H26.8015C26.7135 6.666 25.7675 5.72 23.8095 5.72C22.4015 5.72 21.2355 6.556 21.2355 7.612C21.2355 10.758 28.5395 8.096 28.5395 12.804Z" fill="#F3F6FE"/>
    <path d="M14.5898 0.945999C14.5898 0.374 14.9638 0 15.5138 0C16.0858 0 16.4598 0.374 16.4598 0.945999C16.4598 1.496 16.0858 1.87 15.5138 1.87C14.9638 1.87 14.5898 1.496 14.5898 0.945999ZM16.3938 15.73H14.6338V4.73H16.3938V15.73Z" fill="#F3F6FE"/>
    <path d="M10.736 15.73L7.128 10.78C6.886 10.802 6.622 10.824 6.38 10.824H1.76V15.73H0V0.329998H6.38C9.636 0.329998 12.232 2.53 12.232 5.566C12.232 7.678 10.802 9.482 8.844 10.318L12.826 15.73H10.736ZM10.472 5.566C10.472 3.498 8.734 1.98 6.38 1.98H1.76V9.174H6.38C8.646 9.174 10.472 7.59 10.472 5.566Z" fill="#F3F6FE"/>
</svg>
