<svg width="61" height="61" viewBox="0 0 61 61" fill="none" xmlns="http://www.w3.org/2000/svg">
<path id="Vector" d="M30.5 0C13.6569 0 0 14.0109 0 31.2761C0 45.0964 8.74152 56.8062 20.8598 60.9455C21.0298 60.9824 21.2033 61.0007 21.3772 61C22.5074 61 22.9431 60.1694 22.9431 59.4477C22.9431 58.6989 22.9158 56.7381 22.9022 54.1239C21.8933 54.3604 20.8612 54.4837 19.825 54.4915C13.9565 54.4915 12.6221 49.9301 12.6221 49.9301C11.2333 46.3219 9.2317 45.3551 9.2317 45.3551C6.57656 43.4897 9.21808 43.4352 9.42232 43.4352H9.43594C12.4996 43.7076 14.1063 46.6759 14.1063 46.6759C15.6313 49.3446 17.6737 50.0935 19.4982 50.0935C20.7046 50.0694 21.8924 49.791 22.9839 49.2765C23.2563 47.2614 24.046 45.8861 24.9174 45.0964C18.1502 44.3067 11.029 41.6243 11.029 29.6422C11.029 26.2245 12.2136 23.4333 14.1607 21.2547C13.8475 20.4649 12.7991 17.2788 14.4603 12.9761C14.6831 12.9228 14.9121 12.8999 15.1411 12.908C16.244 12.908 18.7357 13.3301 22.8478 16.1895C27.8442 14.7916 33.1285 14.7916 38.125 16.1895C42.2371 13.3301 44.7288 12.908 45.8317 12.908C46.0607 12.8999 46.2897 12.9228 46.5125 12.9761C48.1737 17.2788 47.1252 20.4649 46.8121 21.2547C48.7592 23.4469 49.9437 26.2382 49.9437 29.6422C49.9437 41.6515 42.8089 44.2931 36.0145 45.0692C37.1038 46.0359 38.0842 47.9422 38.0842 50.856C38.0842 55.0361 38.0433 58.4129 38.0433 59.4341C38.0433 60.1694 38.4654 61 39.5955 61C39.7785 61.0008 39.961 60.9825 40.1402 60.9455C52.2721 56.8062 61 45.0828 61 31.2761C61 14.0109 47.3431 0 30.5 0Z" fill="#F3F6FE"/>
</svg>
