<svg width="186" height="31" viewBox="0 0 186 31" fill="none" xmlns="http://www.w3.org/2000/svg">
<g id="Group 8292">
<path id="Vector" d="M0 3.68726V11.0653H3.75678V7.37785H7.44737V3.68726H0ZM15.7016 3.68726V19.3132C15.7016 20.7377 15.3454 21.8534 14.6489 22.6571C13.9524 23.4608 12.9092 23.8579 11.5351 23.8579C10.1609 23.8579 9.1335 23.4639 8.45905 22.6728C7.78459 21.8818 7.44737 20.7629 7.44737 19.3132V11.0653H3.75678V18.4402H0V19.3069C0 21.7988 0.489557 23.9125 1.46867 25.648C2.3963 27.3293 3.8056 28.6947 5.5154 29.5687C7.33805 30.4707 9.35046 30.9225 11.3838 30.8861C13.4549 30.9161 15.5047 30.4651 17.3719 29.5687C19.1443 28.7042 20.6221 27.336 21.6204 25.6354C22.6709 23.8894 23.1962 21.782 23.1962 19.3132V3.68726H15.7016Z" fill="#F3F6FE"/>
<path id="Vector_2" d="M3.75678 3.68726H0V7.37785H3.75678V3.68726Z" fill="#1D12E6"/>
<path id="Vector_3" d="M7.4484 3.68726H3.75781V7.37785H7.4484V3.68726Z" fill="#2251FC"/>
<path id="Vector_4" d="M7.4484 11.0652H3.75781V14.7558H7.4484V11.0652Z" fill="#2251FC"/>
<path id="Vector_5" d="M11.1379 0H7.44727V3.69059H11.1379V0Z" fill="#5F14FE"/>
<path id="Vector_6" d="M11.1379 7.37817H7.44727V11.0688H11.1379V7.37817Z" fill="#1278E6"/>
<path id="Vector_7" d="M14.8254 11.0684H11.1348V14.759H14.8254V11.0684Z" fill="#14C2FE"/>
<g id="BISTAKE">
<path d="M44.5261 16.8561C46.1104 17.2138 47.3625 18.006 48.2824 19.2326C49.2279 20.4336 49.7007 21.8135 49.7007 23.3723C49.7007 25.6721 48.9085 27.4736 47.3242 28.7769C45.7398 30.0801 43.5167 30.7317 40.6547 30.7317H27.2773V3.70874H40.233C42.9928 3.70874 45.1521 4.32203 46.7109 5.54861C48.2952 6.77518 49.0874 8.50005 49.0874 10.7232C49.0874 12.3075 48.6657 13.6363 47.8225 14.7096C47.0048 15.7573 45.9059 16.4728 44.5261 16.8561ZM34.7901 14.4413H38.5848C40.4758 14.4413 41.4213 13.6619 41.4213 12.1031C41.4213 10.4932 40.4758 9.6883 38.5848 9.6883H34.7901V14.4413ZM39.1598 24.6755C41.0508 24.6755 41.9962 23.8833 41.9962 22.299C41.9962 21.4813 41.7407 20.8552 41.2296 20.4208C40.7441 19.9864 40.0414 19.7692 39.1215 19.7692H34.7901V24.6755H39.1598Z" fill="#F3F6FE"/>
<path d="M60.506 3.70874V30.7317H52.9932V3.70874H60.506Z" fill="#F3F6FE"/>
<path d="M74.9802 31C71.8371 31 69.2562 30.259 67.2374 28.7769C65.2187 27.2692 64.1327 25.1227 63.9794 22.3373H71.9904C72.0671 23.2828 72.3482 23.9728 72.8337 24.4072C73.3192 24.8416 73.9453 25.0588 74.7119 25.0588C75.4018 25.0588 75.964 24.8927 76.3984 24.5605C76.8584 24.2028 77.0884 23.7172 77.0884 23.104C77.0884 22.3118 76.7178 21.6985 75.9768 21.2641C75.2357 20.8297 74.0347 20.3442 72.3737 19.8075C70.6105 19.2198 69.1795 18.6576 68.0807 18.121C67.0075 17.5588 66.062 16.7539 65.2443 15.7062C64.4521 14.6329 64.056 13.2403 64.056 11.5282C64.056 9.79051 64.4904 8.3084 65.3593 7.08182C66.2281 5.8297 67.4291 4.88421 68.9623 4.24537C70.4955 3.60653 72.2332 3.28711 74.1753 3.28711C77.3184 3.28711 79.8226 4.02817 81.688 5.51028C83.579 6.96683 84.5884 9.0239 84.7161 11.6815H76.5517C76.5262 10.8638 76.2707 10.2505 75.7851 9.84162C75.3252 9.43276 74.7247 9.22833 73.9836 9.22833C73.4214 9.22833 72.9615 9.39443 72.6037 9.72663C72.246 10.0588 72.0671 10.5316 72.0671 11.1449C72.0671 11.6559 72.2587 12.1031 72.642 12.4864C73.0509 12.8442 73.5492 13.1636 74.1369 13.4447C74.7247 13.7002 75.5935 14.0324 76.7434 14.4413C78.4555 15.029 79.8609 15.6167 80.9598 16.2045C82.0841 16.7667 83.0424 17.5716 83.8345 18.6193C84.6523 19.6414 85.0611 20.9447 85.0611 22.529C85.0611 24.1389 84.6523 25.5827 83.8345 26.8603C83.0424 28.138 81.8797 29.1474 80.3465 29.8884C78.8388 30.6295 77.05 31 74.9802 31Z" fill="#14C2FE"/>
<path d="M108.907 3.70874V9.6883H101.701V30.7317H94.1882V9.6883H87.0588V3.70874H108.907Z" fill="#14C2FE"/>
<path d="M128.782 26.3237H119.199L117.743 30.7317H109.847L119.698 3.70874H128.36L138.173 30.7317H130.239L128.782 26.3237ZM126.904 20.5741L123.991 11.8348L121.116 20.5741H126.904Z" fill="#14C2FE"/>
<path d="M156.605 30.7317L148.134 18.8876V30.7317H140.622V3.70874H148.134V15.3612L156.529 3.70874H165.192L155.264 16.8178L165.69 30.7317H156.605Z" fill="#14C2FE"/>
<path d="M175.947 9.72663V14.1346H184.571V19.8459H175.947V24.7138H185.721V30.7317H168.434V3.70874H185.721V9.72663H175.947Z" fill="#14C2FE"/>
</g>
</g>
</svg>
