<svg width="232" height="35" viewBox="0 0 232 35" fill="none" xmlns="http://www.w3.org/2000/svg">
<g id="Group 8293">
<g id="Group">
<g id="Clip path group">
<mask id="mask0_104_3136" style="mask-type:luminance" maskUnits="userSpaceOnUse" x="0" y="0" width="19" height="26">
<g id="SVGID_00000080194323732032420000000016290322358683068317_">
<path id="Vector" d="M18.9738 0.241699H0V25.4609H18.9738V0.241699Z" fill="white"/>
</g>
</mask>
<g mask="url(#mask0_104_3136)">
<g id="Group_2">
<path id="Vector_2" d="M0 3.25513V9.28177H3.06179V6.26845H6.07719V3.25513H0ZM12.8502 3.25513V16.0501C12.8502 17.2091 12.5719 18.1363 12.0152 18.7853C11.4585 19.4343 10.5771 19.7589 9.46371 19.7589C8.35033 19.7589 7.5153 19.4343 6.95861 18.7853C6.40192 18.1363 6.12357 17.2091 6.12357 16.0501V9.32813H3.10818V15.3548H0V16.0501C0 18.0899 0.417519 19.8052 1.20616 21.2423C1.94841 22.5867 3.10818 23.7457 4.54629 24.4411C5.93801 25.1828 7.56169 25.5073 9.32454 25.5073C10.9946 25.5073 12.7111 25.1365 14.1956 24.4411C15.6337 23.7457 16.8398 22.6331 17.6749 21.2423C18.5099 19.8052 18.9274 18.0899 18.9738 16.0965V3.30149H12.8502V3.25513Z" fill="#F3F6FE"/>
<path id="Vector_3" d="M3.06179 3.25513H0V6.26845H3.06179V3.25513Z" fill="#1A40C9"/>
<path id="Vector_4" d="M6.0779 3.25513H3.0625V6.26845H6.0779V3.25513Z" fill="#2251FC"/>
<path id="Vector_5" d="M9.09157 0.241699H6.07617V3.25502H9.09157V0.241699Z" fill="#5F14FE"/>
<path id="Vector_6" d="M9.09157 6.26855H6.07617V9.28187H9.09157V6.26855Z" fill="#1278E6"/>
<path id="Vector_7" d="M12.1072 9.28125H9.0918V12.2946H12.1072V9.28125Z" fill="#14C2FE"/>
<g id="Group_3">
<g id="Group_4">
<g id="Clip path group_2">
<mask id="mask1_104_3136" style="mask-type:luminance" maskUnits="userSpaceOnUse" x="0" y="0" width="19" height="26">
<g id="SVGID_00000136389456221309208650000017198307194991841470_">
<path id="Vector_8" d="M18.9738 0.241699H0V25.4609H18.9738V0.241699Z" fill="white"/>
</g>
</mask>
<g mask="url(#mask1_104_3136)">
<g id="Group_5">
<path id="Vector_9" d="M3.06179 3.25513H0V6.26845H3.06179V3.25513Z" fill="#1D12E6"/>
<path id="Vector_10" d="M6.12428 3.25513H3.0625V6.26845H6.0779L6.12428 3.25513Z" fill="#2251FC"/>
<path id="Vector_11" d="M9.09157 0.241699H6.07617V3.25502H9.09157V0.241699Z" fill="#5F14FE"/>
<path id="Vector_12" d="M9.09157 6.26855H6.07617V9.28187H9.09157V6.26855Z" fill="#1278E6"/>
<path id="Vector_13" d="M12.1072 9.28125H9.0918V12.2946H12.1072V9.28125Z" fill="#14C2FE"/>
</g>
</g>
</g>
</g>
</g>
<path id="Vector_14" d="M6.12428 9.28125H3.0625V12.2946H6.0779L6.12428 9.28125Z" fill="#2251FC"/>
</g>
</g>
</g>
</g>
<path id="Vector_15" d="M36.9724 14.1026C38.225 14.3344 39.292 15.0298 40.0806 16.0497C40.8692 17.0233 41.2868 18.2286 41.2404 19.4803C41.3331 21.1955 40.5909 22.8181 39.292 23.9307C37.993 24.997 36.1374 25.5069 33.7715 25.5069H22.7305V3.2547H33.4467C35.7199 3.2547 37.5291 3.76465 38.7817 4.78455C40.0806 5.80444 40.8229 7.38063 40.7301 9.04954C40.7765 10.2549 40.4053 11.4138 39.7095 12.341C39.0136 13.1755 38.0394 13.8245 36.9724 14.1026ZM28.9468 12.1092H32.1014C33.6787 12.1092 34.4209 11.4602 34.4209 10.1622C34.4209 8.86411 33.6323 8.16873 32.1014 8.16873H28.9468V12.1092ZM32.5189 20.5465C34.0962 20.5465 34.8385 19.8975 34.8385 18.5995C34.8848 17.9968 34.6529 17.4405 34.189 17.0233C33.6787 16.6524 33.0756 16.4669 32.4261 16.5133H28.854V20.5465H32.5189ZM50.1474 3.2547V25.5069H43.9774V3.2547H50.1474ZM67.6367 25.5069L63.3224 19.2021L59.6111 25.5069H52.5597L59.7967 14.1026L52.2814 3.2547H59.6111L63.8327 9.37406L67.4511 3.2547H74.5025L67.3584 14.4735L74.9664 25.5069H67.6367ZM78.6777 25.6923C77.6107 25.6923 76.7293 24.8115 76.7293 23.7453C76.7293 22.679 77.6107 21.7982 78.6777 21.7982C79.188 21.7982 79.6519 21.9836 80.023 22.3545C80.7653 23.1426 80.7653 24.3479 80.023 25.136C79.6519 25.5069 79.188 25.7387 78.6777 25.6923ZM85.2188 5.80443V13.1755H93.2444V15.5398H85.2188V23.1426H94.2186V25.5069H82.3426V3.44013H94.2186V5.80443H85.2188ZM107.579 25.5069L103.45 19.063L99.5071 25.5069H96.4917L102.105 16.9305L96.4917 8.21509H99.7391L103.868 14.6126L107.811 8.21509H110.826L105.26 16.7915L110.873 25.5533H107.579V25.5069ZM112.636 16.8378C112.589 15.2153 112.96 13.5927 113.703 12.1556C114.399 10.8575 115.419 9.74492 116.672 9.00318C118.017 8.26144 119.548 7.89057 121.079 7.89057C122.934 7.79786 124.79 8.35417 126.321 9.42042C127.713 10.4867 128.687 12.0165 129.058 13.7318H125.95C125.671 12.7119 125.068 11.8311 124.187 11.2284C123.259 10.5794 122.146 10.2549 121.032 10.3012C119.502 10.2549 118.063 10.8575 117.043 12.0165C116.022 13.1291 115.512 14.7053 115.512 16.7915C115.512 18.8776 116.022 20.4538 117.043 21.6128C118.063 22.7717 119.502 23.3744 121.032 23.3281C122.146 23.3744 123.259 23.0499 124.187 22.4472C125.022 21.8446 125.671 20.9174 125.95 19.8975H129.058C128.641 21.6128 127.666 23.0963 126.275 24.1625C124.744 25.2751 122.934 25.8314 121.032 25.7387C119.502 25.7851 117.971 25.3678 116.625 24.6261C115.373 23.8844 114.306 22.8181 113.656 21.4737C112.96 20.0829 112.589 18.4604 112.636 16.8378ZM141.491 7.89057C142.743 7.89057 143.949 8.16872 145.016 8.77139C146.083 9.32769 146.965 10.2085 147.475 11.2748C148.125 12.5265 148.449 13.9172 148.403 15.3543V25.5533H145.573V15.7716C145.573 14.0563 145.156 12.7119 144.274 11.8311C143.346 10.8575 142.047 10.3476 140.748 10.4403C139.403 10.3939 138.058 10.9039 137.13 11.8774C136.249 12.8046 135.785 14.1954 135.785 16.0034V25.5069H132.908V2.14209H135.785V10.6721C136.341 9.79128 137.176 9.04955 138.104 8.63232C139.171 8.12237 140.331 7.89057 141.491 7.89057ZM152.068 16.7915C152.021 15.1689 152.393 13.5927 153.135 12.1556C153.784 10.8575 154.805 9.79128 156.057 9.00318C157.356 8.26144 158.794 7.89057 160.279 7.89057C161.671 7.84422 163.016 8.21509 164.222 8.86411C165.243 9.42042 166.124 10.3012 166.727 11.3211V8.16873H169.65V25.5069H166.727V22.2618C166.124 23.328 165.243 24.2089 164.176 24.8115C162.97 25.5069 161.624 25.8314 160.233 25.7851C158.748 25.7851 157.31 25.4142 156.057 24.6261C154.805 23.838 153.784 22.7254 153.135 21.4273C152.439 19.9902 152.068 18.414 152.068 16.7915ZM166.774 16.8378C166.82 15.6325 166.542 14.4735 165.985 13.4073C165.475 12.4801 164.732 11.692 163.851 11.182C162.97 10.6721 161.949 10.3939 160.928 10.3939C159.908 10.3939 158.887 10.6257 158.006 11.1357C157.124 11.6456 156.382 12.4337 155.872 13.3609C155.315 14.4272 155.037 15.5861 155.083 16.7915C155.037 17.9968 155.315 19.2021 155.872 20.2684C156.382 21.1955 157.078 21.9836 158.006 22.4936C159.815 23.5135 162.042 23.5135 163.897 22.4936C164.825 21.9836 165.568 21.1955 166.031 20.2684C166.495 19.2021 166.774 18.0432 166.774 16.8378ZM183.01 7.89057C184.912 7.79786 186.722 8.49324 188.113 9.83765C189.412 11.0893 190.062 12.9437 190.062 15.3543V25.5533H187.232V15.7716C187.232 14.0563 186.814 12.7119 185.933 11.8311C185.005 10.8575 183.706 10.3939 182.407 10.4403C181.062 10.3939 179.717 10.9039 178.789 11.8774C177.907 12.8046 177.444 14.1954 177.444 16.0034V25.5069H174.567V8.21509H177.444V10.6721C178 9.79128 178.835 9.0959 179.763 8.63232C180.737 8.12237 181.851 7.89057 183.01 7.89057ZM201.938 7.93694C203.33 7.89058 204.675 8.26145 205.881 8.91047C206.948 9.46678 207.829 10.3476 208.433 11.3675V8.21509H211.355V25.9241C211.402 27.4076 211.03 28.8447 210.335 30.1428C209.685 31.3945 208.664 32.368 207.412 33.0634C206.067 33.7588 204.582 34.1296 203.051 34.0833C201.01 34.176 199.015 33.6197 197.345 32.4607C195.861 31.4408 194.886 29.8646 194.654 28.0566H197.484C197.809 29.1229 198.505 30.0037 199.433 30.6064C200.5 31.3018 201.752 31.6263 203.005 31.5799C204.443 31.6263 205.835 31.1163 206.855 30.0964C207.876 29.1229 208.386 27.7321 208.386 25.9241V22.2618C207.783 23.328 206.902 24.1625 205.835 24.8115C204.629 25.5069 203.283 25.8778 201.891 25.8314C198.876 25.8778 196.093 24.2089 194.747 21.4737C194.005 20.0366 193.634 18.414 193.68 16.7915C193.634 15.1689 194.005 13.5927 194.747 12.1556C195.397 10.8575 196.417 9.79128 197.67 9.00318C198.969 8.26144 200.453 7.89058 201.938 7.93694ZM208.386 16.8378C208.433 15.6325 208.154 14.4735 207.598 13.4073C207.087 12.4801 206.345 11.692 205.464 11.182C204.582 10.6721 203.562 10.3939 202.541 10.3939C201.52 10.3939 200.5 10.6257 199.618 11.1357C198.737 11.6456 197.995 12.4337 197.484 13.3609C196.928 14.4272 196.649 15.5861 196.696 16.7915C196.649 17.9968 196.928 19.2021 197.484 20.2684C197.948 21.1955 198.69 21.9836 199.618 22.4936C201.428 23.5135 203.654 23.5135 205.51 22.4936C206.438 21.9836 207.18 21.1955 207.644 20.2684C208.154 19.2021 208.386 18.0432 208.386 16.8378ZM231.999 16.1888C231.999 16.7451 231.953 17.3014 231.906 17.9504H218.035C217.989 20.9174 220.401 23.3744 223.37 23.3744C223.463 23.3744 223.556 23.3744 223.649 23.3744C224.762 23.4208 225.829 23.0963 226.757 22.5399C227.592 21.9836 228.195 21.1492 228.52 20.222H231.628C231.164 21.8446 230.19 23.2817 228.844 24.3016C227.314 25.3678 225.504 25.9241 223.649 25.8778C222.118 25.8778 220.587 25.5069 219.242 24.7652C217.943 24.0234 216.922 22.9572 216.226 21.6128C214.742 18.6458 214.742 15.1225 216.18 12.1556C216.876 10.8575 217.896 9.79128 219.195 9.04954C220.587 8.3078 222.118 7.89058 223.695 7.93694C225.226 7.89058 226.71 8.26144 228.056 9.00318C229.308 9.69856 230.329 10.7185 230.978 11.9702C231.628 13.2682 231.999 14.7053 231.999 16.1888ZM229.03 15.5861C229.076 14.6126 228.798 13.6391 228.288 12.7582C227.824 11.9701 227.128 11.3211 226.293 10.9503C225.412 10.533 224.484 10.3012 223.51 10.3012C222.118 10.2549 220.819 10.7648 219.798 11.692C218.731 12.7119 218.128 14.1026 218.035 15.5398L229.03 15.5861Z" fill="#F3F6FE"/>
</g>
</svg>
