<svg width="40" height="40" viewBox="0 0 40 40" fill="none" xmlns="http://www.w3.org/2000/svg">
    <g clip-path="url(#clip0_104_2935)">
        <path fill-rule="evenodd" clip-rule="evenodd" d="M40 20.7396H0V19.2581H40V20.7396Z" fill="#F3F6FE"/>
        <path fill-rule="evenodd" clip-rule="evenodd" d="M19.2578 40V0H20.7393V40H19.2578Z" fill="#F3F6FE"/>
        <path d="M9.53371 12.0989H5.67405V16.2434H2.83008V2.02127H10.1431C13.1902 2.02127 15.7097 4.03166 15.7097 7.06009C15.7097 9.0518 14.4091 10.7166 12.6415 11.5502L16.2163 16.2434H12.6812L9.53138 12.0989H9.53371ZM10.1431 4.64341H5.67405V9.43706H10.1431C11.7076 9.43706 12.8657 8.40035 12.8657 7.06009C12.8657 5.71983 11.7286 4.64341 10.1431 4.64341Z" fill="#F3F6FE"/>
        <path d="M23.6641 23.7332H30.9374C33.9845 23.7332 36.5436 25.7436 36.5436 28.772C36.5436 31.637 33.8421 33.8109 30.9374 33.8109H26.508V37.9554H23.6641V23.7356V23.7332ZM30.9374 26.353H26.508V31.1467H30.9374C32.5018 31.1467 33.6997 30.11 33.6997 28.7697C33.6997 27.4294 32.5205 26.353 30.9374 26.353Z" fill="#F3F6FE"/>
    </g>
    <defs>
        <clipPath id="clip0_104_2935">
            <rect width="40" height="40" fill="white"/>
        </clipPath>
    </defs>
</svg>
