<svg width="336" height="211" viewBox="0 0 336 211" fill="none" xmlns="http://www.w3.org/2000/svg">
<path d="M124.109 102.595V113.648H115.789V72.0512H124.109V95.0485H127.793L138.014 83.9361H148.948L135.34 98.7923L150.137 113.648H138.846L127.733 102.595H124.109Z" fill="#18212E"/>
<path d="M109.888 105.21C109.888 110.558 104.242 114.54 95.5662 114.54C86.6525 114.54 80.5912 110.618 79.9375 104.438H88.257C88.7324 107.052 91.347 108.597 95.5662 108.597C98.9534 108.597 101.509 107.112 101.509 105.21C101.509 98.6735 80.71 104.438 80.71 92.4933C80.71 87.2639 86.0582 83.0448 94.7343 83.0448C103.648 83.0448 108.937 86.9074 109.412 93.0875H101.093C100.736 90.7105 98.5969 89.0467 94.6748 89.0467C91.4065 89.0467 89.0295 90.4728 89.0295 92.4339C89.0295 98.7923 109.888 92.3744 109.888 105.21Z" fill="#18212E"/>
<path d="M65.9525 74.963C65.9525 72.7643 67.4976 71.1598 69.8746 71.1598C72.1327 71.1598 73.6778 72.7643 73.6778 74.963C73.6778 77.34 72.1327 78.8256 69.8746 78.8256C67.4976 78.8256 65.9525 77.34 65.9525 74.963ZM74.0343 113.648H65.7148V83.9361H74.0343V113.648Z" fill="#18212E"/>
<path d="M51.3522 113.648L42.1414 101.526H30.8507V113.648H22.5312V72.0512H43.9242C52.8379 72.0512 60.2065 77.9342 60.2065 86.7885C60.2065 92.6121 56.4033 97.485 51.2334 99.9214L61.6921 113.648H51.3522ZM51.8871 86.7885C51.8871 82.6882 48.5593 79.717 43.9242 79.717H30.8507V93.7412H43.9242C48.4999 93.7412 51.8871 90.7105 51.8871 86.7885Z" fill="#18212E"/>
<path d="M336.001 165.806C336.001 171.154 330.355 175.136 321.679 175.136C312.766 175.136 306.704 171.214 306.051 165.034H314.37C314.846 167.648 317.46 169.193 321.679 169.193C325.067 169.193 327.622 167.708 327.622 165.806C327.622 159.269 306.823 165.034 306.823 153.089C306.823 147.86 312.172 143.641 320.848 143.641C329.761 143.641 335.05 147.503 335.525 153.683H327.206C326.849 151.306 324.71 149.643 320.788 149.643C317.52 149.643 315.143 151.069 315.143 153.03C315.143 159.388 336.001 152.97 336.001 165.806Z" fill="#18212E"/>
<path d="M300.427 132.647V174.244H292.107V132.647H300.427Z" fill="#18212E"/>
<path d="M249.934 159.448C249.934 150.356 257.659 143.641 268.118 143.641C278.695 143.641 286.361 149.999 286.361 159.448C286.361 168.718 278.695 175.136 268.118 175.136C257.718 175.136 249.934 168.421 249.934 159.448ZM258.253 159.448C258.253 164.083 262.472 167.411 268.118 167.411C274.06 167.411 278.041 164.083 278.041 159.448C278.041 154.694 274.06 151.306 268.118 151.306C262.413 151.306 258.253 154.694 258.253 159.448Z" fill="#18212E"/>
<path d="M209.6 159.448C209.6 150.356 217.325 143.641 227.784 143.641C238.361 143.641 246.027 149.999 246.027 159.448C246.027 168.718 238.361 175.136 227.784 175.136C217.384 175.136 209.6 168.421 209.6 159.448ZM217.919 159.448C217.919 164.083 222.138 167.411 227.784 167.411C233.726 167.411 237.708 164.083 237.708 159.448C237.708 154.694 233.726 151.306 227.784 151.306C222.079 151.306 217.919 154.694 217.919 159.448Z" fill="#18212E"/>
<path d="M168.615 174.244V132.647H189.889C198.803 132.647 206.291 138.53 206.291 147.384C206.291 155.763 198.387 162.122 189.889 162.122H176.935V174.244H168.615ZM197.971 147.384C197.971 143.284 194.524 140.313 189.889 140.313H176.935V154.337H189.889C194.465 154.337 197.971 151.306 197.971 147.384Z" fill="#18212E"/>
<circle cx="132" cy="145" r="4" fill="#18212E"/>
<circle cx="161" cy="4" r="4" fill="#18212E"/>
<path d="M192.432 101.592V114H190.672V98.6H192.894L198.526 112.064L204.136 98.6H206.336V114H204.576V101.636L199.318 114H197.712L192.432 101.592ZM208.68 108.522C208.68 105.156 211.166 102.67 214.466 102.67C217.854 102.67 220.318 105.046 220.318 108.522C220.318 111.954 217.854 114.33 214.466 114.33C211.166 114.33 208.68 111.844 208.68 108.522ZM210.44 108.5C210.44 110.898 212.178 112.658 214.466 112.658C216.908 112.658 218.558 110.986 218.558 108.5C218.558 106.014 216.886 104.32 214.466 104.32C212.156 104.32 210.44 106.102 210.44 108.5ZM224.638 108.566V114H222.878V103H224.396L224.616 105.178C225.474 103.616 226.926 102.67 228.73 102.67C231.568 102.67 233.526 105.112 233.526 108.566V114H231.766V108.566C231.766 106.014 230.358 104.32 228.202 104.32C226.09 104.32 224.638 106.036 224.638 108.566ZM247.488 109.006H237.962C238.16 111.272 239.722 112.922 241.812 112.922C243.352 112.922 244.606 112.13 245.332 110.876H247.136C246.234 113.01 244.276 114.33 241.812 114.33C238.578 114.33 236.18 111.844 236.18 108.522C236.18 105.156 238.534 102.67 241.812 102.67C245.156 102.67 247.51 105.046 247.51 108.522C247.51 108.676 247.488 108.83 247.488 109.006ZM237.962 107.994H245.728C245.53 105.684 243.99 104.122 241.812 104.122C239.722 104.122 238.16 105.728 237.962 107.994ZM253.419 104.65V108.852C253.419 111.536 254.453 112.658 256.763 112.658V114.33C253.155 114.33 251.659 112.482 251.659 108.852V104.65H249.349V103.902L252.693 100.536H253.419V103H256.763V104.65H253.419ZM259.575 99.216C259.575 98.644 259.949 98.27 260.499 98.27C261.071 98.27 261.445 98.644 261.445 99.216C261.445 99.766 261.071 100.14 260.499 100.14C259.949 100.14 259.575 99.766 259.575 99.216ZM261.379 114H259.619V103H261.379V114ZM264.967 104.716V103H273.745V104.408L266.925 112.262H274.031V114H264.703V112.592L271.567 104.716H264.967ZM287.686 109.006H278.16C278.358 111.272 279.92 112.922 282.01 112.922C283.55 112.922 284.804 112.13 285.53 110.876H287.334C286.432 113.01 284.474 114.33 282.01 114.33C278.776 114.33 276.378 111.844 276.378 108.522C276.378 105.156 278.732 102.67 282.01 102.67C285.354 102.67 287.708 105.046 287.708 108.522C287.708 108.676 287.686 108.83 287.686 109.006ZM278.16 107.994H285.926C285.728 105.684 284.188 104.122 282.01 104.122C279.92 104.122 278.358 105.728 278.16 107.994ZM302.659 102.67V104.518C299.579 104.518 297.599 106.96 297.599 110.876V114H295.839V103H297.357L297.599 106.498C298.523 104.122 300.349 102.67 302.659 102.67ZM305.036 99.216C305.036 98.644 305.41 98.27 305.96 98.27C306.532 98.27 306.906 98.644 306.906 99.216C306.906 99.766 306.532 100.14 305.96 100.14C305.41 100.14 305.036 99.766 305.036 99.216ZM306.84 114H305.08V103H306.84V114ZM318.985 111.074C318.985 112.922 317.203 114.33 314.651 114.33C311.857 114.33 309.899 113.142 309.635 110.898H311.307C311.549 112.262 312.693 112.988 314.673 112.988C316.169 112.988 317.313 112.152 317.313 111.096C317.313 107.84 309.987 110.326 309.987 105.904C309.987 104.122 311.725 102.67 314.277 102.67C316.983 102.67 318.699 103.968 318.875 106.146H317.247C317.159 104.936 316.213 103.99 314.255 103.99C312.847 103.99 311.681 104.826 311.681 105.882C311.681 109.028 318.985 106.366 318.985 111.074ZM323.315 109.336V114H321.555V98.6H323.315V107.708H325.273L328.859 103H330.839L326.593 108.5L331.367 114H329.299L325.317 109.336H323.315ZM332.323 113.208C332.323 112.57 332.763 112.13 333.401 112.13C334.105 112.13 334.545 112.57 334.545 113.208C334.545 113.912 334.105 114.33 333.401 114.33C332.763 114.33 332.323 113.912 332.323 113.208Z" fill="#212730"/>
<line x1="161" y1="4" x2="161" y2="211" stroke="#18212E" stroke-width="2"/>
<line x1="336" y1="123" x2="101" y2="123" stroke="#18212E" stroke-width="2"/>
<line x1="130" y1="145" y2="145" stroke="#18212E" stroke-width="2"/>
</svg>
