<svg width="1876" height="512" viewBox="0 0 1876 512" fill="none" xmlns="http://www.w3.org/2000/svg">
    <path d="M1028.72 229.968V270.743H998.031V117.288H1028.72V202.127H1042.31L1080.02 161.133H1120.36L1070.16 215.938L1124.74 270.743H1083.09L1042.09 229.968H1028.72Z" fill="#18212E"/>
    <path d="M976.269 239.614C976.269 259.344 955.443 274.032 923.436 274.032C890.553 274.032 868.193 259.563 865.781 236.764H896.472C898.226 246.41 907.872 252.109 923.436 252.109C935.932 252.109 945.359 246.629 945.359 239.614C945.359 215.5 868.631 236.764 868.631 192.7C868.631 173.409 888.361 157.844 920.367 157.844C953.251 157.844 972.761 172.094 974.515 194.893H943.824C942.509 186.124 934.617 179.986 920.148 179.986C908.091 179.986 899.322 185.247 899.322 192.481C899.322 215.938 976.269 192.262 976.269 239.614Z" fill="#18212E"/>
    <path d="M814.185 128.03C814.185 119.919 819.885 114 828.654 114C836.985 114 842.684 119.919 842.684 128.03C842.684 136.799 836.985 142.28 828.654 142.28C819.885 142.28 814.185 136.799 814.185 128.03ZM844 270.743H813.309V161.133H844V270.743Z" fill="#18212E"/>
    <path d="M760.322 270.743L726.343 226.022H684.691V270.743H654V117.288H732.92C765.803 117.288 792.986 138.991 792.986 171.655C792.986 193.139 778.956 211.115 759.884 220.103L798.467 270.743H760.322ZM762.295 171.655C762.295 156.529 750.019 145.568 732.92 145.568H684.691V197.304H732.92C749.8 197.304 762.295 186.124 762.295 171.655Z" fill="#18212E"/>
    <path d="M1760.16 414.913C1760.16 434.643 1739.34 449.331 1707.33 449.331C1674.45 449.331 1652.09 434.862 1649.68 412.063H1680.37C1682.12 421.709 1691.77 427.409 1707.33 427.409C1719.83 427.409 1729.25 421.928 1729.25 414.913C1729.25 390.799 1652.53 412.063 1652.53 368C1652.53 348.708 1672.26 333.143 1704.26 333.143C1737.15 333.143 1756.66 347.393 1758.41 370.192H1727.72C1726.4 361.423 1718.51 355.285 1704.04 355.285C1691.99 355.285 1683.22 360.546 1683.22 367.78C1683.22 391.237 1760.16 367.561 1760.16 414.913Z" fill="#18212E"/>
    <path d="M1628.93 292.587V446.042H1598.24V292.587H1628.93Z" fill="#18212E"/>
    <path d="M1442.66 391.456C1442.66 357.915 1471.16 333.143 1509.74 333.143C1548.76 333.143 1577.04 356.6 1577.04 391.456C1577.04 425.655 1548.76 449.331 1509.74 449.331C1471.37 449.331 1442.66 424.559 1442.66 391.456ZM1473.35 391.456C1473.35 408.556 1488.91 420.832 1509.74 420.832C1531.66 420.832 1546.35 408.556 1546.35 391.456C1546.35 373.919 1531.66 361.423 1509.74 361.423C1488.69 361.423 1473.35 373.919 1473.35 391.456Z" fill="#18212E"/>
    <path d="M1293.87 391.456C1293.87 357.915 1322.37 333.143 1360.95 333.143C1399.97 333.143 1428.25 356.6 1428.25 391.456C1428.25 425.655 1399.97 449.331 1360.95 449.331C1322.59 449.331 1293.87 424.559 1293.87 391.456ZM1324.56 391.456C1324.56 408.556 1340.12 420.832 1360.95 420.832C1382.87 420.832 1397.56 408.556 1397.56 391.456C1397.56 373.919 1382.87 361.423 1360.95 361.423C1339.91 361.423 1324.56 373.919 1324.56 391.456Z" fill="#18212E"/>
    <path d="M1142.67 446.042V292.587H1221.15C1254.04 292.587 1281.66 314.29 1281.66 346.954C1281.66 377.865 1252.5 401.321 1221.15 401.321H1173.36V446.042H1142.67ZM1250.97 346.954C1250.97 331.828 1238.25 320.867 1221.15 320.867H1173.36V372.603H1221.15C1238.03 372.603 1250.97 361.423 1250.97 346.954Z" fill="#18212E"/>
    <line x1="1131.5" y1="1" x2="1131.5" y2="512" stroke="#18212E" stroke-width="3"/>
    <line x1="1875" y1="281.5" x2="851" y2="281.5" stroke="#18212E" stroke-width="3"/>
    <line x1="1024" y1="322.5" y2="322.5" stroke="#18212E" stroke-width="3"/>
    <path d="M1485.36 218.16V252H1480.56V210H1486.62L1501.98 246.72L1517.28 210H1523.28V252H1518.48V218.28L1504.14 252H1499.76L1485.36 218.16ZM1529.67 237.06C1529.67 227.88 1536.45 221.1 1545.45 221.1C1554.69 221.1 1561.41 227.58 1561.41 237.06C1561.41 246.42 1554.69 252.9 1545.45 252.9C1536.45 252.9 1529.67 246.12 1529.67 237.06ZM1534.47 237C1534.47 243.54 1539.21 248.34 1545.45 248.34C1552.11 248.34 1556.61 243.78 1556.61 237C1556.61 230.22 1552.05 225.6 1545.45 225.6C1539.15 225.6 1534.47 230.46 1534.47 237ZM1573.19 237.18V252H1568.39V222H1572.53L1573.13 227.94C1575.47 223.68 1579.43 221.1 1584.35 221.1C1592.09 221.1 1597.43 227.76 1597.43 237.18V252H1592.63V237.18C1592.63 230.22 1588.79 225.6 1582.91 225.6C1577.15 225.6 1573.19 230.28 1573.19 237.18ZM1635.51 238.38H1609.53C1610.07 244.56 1614.33 249.06 1620.03 249.06C1624.23 249.06 1627.65 246.9 1629.63 243.48H1634.55C1632.09 249.3 1626.75 252.9 1620.03 252.9C1611.21 252.9 1604.67 246.12 1604.67 237.06C1604.67 227.88 1611.09 221.1 1620.03 221.1C1629.15 221.1 1635.57 227.58 1635.57 237.06C1635.57 237.48 1635.51 237.9 1635.51 238.38ZM1609.53 235.62H1630.71C1630.17 229.32 1625.97 225.06 1620.03 225.06C1614.33 225.06 1610.07 229.44 1609.53 235.62ZM1651.69 226.5V237.96C1651.69 245.28 1654.51 248.34 1660.81 248.34V252.9C1650.97 252.9 1646.89 247.86 1646.89 237.96V226.5H1640.59V224.46L1649.71 215.28H1651.69V222H1660.81V226.5H1651.69ZM1668.48 211.68C1668.48 210.12 1669.5 209.1 1671 209.1C1672.56 209.1 1673.58 210.12 1673.58 211.68C1673.58 213.18 1672.56 214.2 1671 214.2C1669.5 214.2 1668.48 213.18 1668.48 211.68ZM1673.4 252H1668.6V222H1673.4V252ZM1683.18 226.68V222H1707.12V225.84L1688.52 247.26H1707.9V252H1682.46V248.16L1701.18 226.68H1683.18ZM1745.14 238.38H1719.16C1719.7 244.56 1723.96 249.06 1729.66 249.06C1733.86 249.06 1737.28 246.9 1739.26 243.48H1744.18C1741.72 249.3 1736.38 252.9 1729.66 252.9C1720.84 252.9 1714.3 246.12 1714.3 237.06C1714.3 227.88 1720.72 221.1 1729.66 221.1C1738.78 221.1 1745.2 227.58 1745.2 237.06C1745.2 237.48 1745.14 237.9 1745.14 238.38ZM1719.16 235.62H1740.34C1739.8 229.32 1735.6 225.06 1729.66 225.06C1723.96 225.06 1719.7 229.44 1719.16 235.62ZM1785.98 221.1V226.14C1777.58 226.14 1772.18 232.8 1772.18 243.48V252H1767.38V222H1771.52L1772.18 231.54C1774.7 225.06 1779.68 221.1 1785.98 221.1ZM1792.46 211.68C1792.46 210.12 1793.48 209.1 1794.98 209.1C1796.54 209.1 1797.56 210.12 1797.56 211.68C1797.56 213.18 1796.54 214.2 1794.98 214.2C1793.48 214.2 1792.46 213.18 1792.46 211.68ZM1797.38 252H1792.58V222H1797.38V252ZM1830.51 244.02C1830.51 249.06 1825.65 252.9 1818.69 252.9C1811.07 252.9 1805.73 249.66 1805.01 243.54H1809.57C1810.23 247.26 1813.35 249.24 1818.75 249.24C1822.83 249.24 1825.95 246.96 1825.95 244.08C1825.95 235.2 1805.97 241.98 1805.97 229.92C1805.97 225.06 1810.71 221.1 1817.67 221.1C1825.05 221.1 1829.73 224.64 1830.21 230.58H1825.77C1825.53 227.28 1822.95 224.7 1817.61 224.7C1813.77 224.7 1810.59 226.98 1810.59 229.86C1810.59 238.44 1830.51 231.18 1830.51 244.02ZM1842.31 239.28V252H1837.51V210H1842.31V234.84H1847.65L1857.43 222H1862.83L1851.25 237L1864.27 252H1858.63L1847.77 239.28H1842.31ZM1866.88 249.84C1866.88 248.1 1868.08 246.9 1869.82 246.9C1871.74 246.9 1872.94 248.1 1872.94 249.84C1872.94 251.76 1871.74 252.9 1869.82 252.9C1868.08 252.9 1866.88 251.76 1866.88 249.84Z" fill="#212730"/>
    <circle cx="1029" cy="322" r="6" fill="#18212E"/>
    <circle cx="1131" cy="6" r="6" fill="#18212E"/>
</svg>
