<svg width="1558" height="512" viewBox="0 0 1558 512" fill="none" xmlns="http://www.w3.org/2000/svg">
<path d="M710.722 229.968V270.743H680.031V117.288H710.722V202.127H724.314L762.02 161.133H802.357L752.155 215.938L806.741 270.743H765.089L724.095 229.968H710.722Z" fill="#18212E"/>
<path d="M658.269 239.614C658.269 259.344 637.443 274.032 605.436 274.032C572.553 274.032 550.193 259.563 547.781 236.764H578.472C580.226 246.41 589.872 252.11 605.436 252.11C617.932 252.11 627.359 246.629 627.359 239.614C627.359 215.5 550.631 236.764 550.631 192.701C550.631 173.409 570.361 157.844 602.367 157.844C635.251 157.844 654.761 172.094 656.515 194.893H625.824C624.509 186.124 616.617 179.986 602.148 179.986C590.091 179.986 581.322 185.247 581.322 192.481C581.322 215.938 658.269 192.262 658.269 239.614Z" fill="#18212E"/>
<path d="M496.185 128.03C496.185 119.919 501.885 114 510.654 114C518.985 114 524.684 119.919 524.684 128.03C524.684 136.799 518.985 142.28 510.654 142.28C501.885 142.28 496.185 136.799 496.185 128.03ZM526 270.743H495.309V161.133H526V270.743Z" fill="#18212E"/>
<path d="M442.322 270.743L408.343 226.022H366.691V270.743H336V117.288H414.92C447.803 117.288 474.986 138.991 474.986 171.655C474.986 193.139 460.956 211.115 441.884 220.103L480.467 270.743H442.322ZM444.295 171.655C444.295 156.529 432.019 145.568 414.92 145.568H366.691V197.304H414.92C431.8 197.304 444.295 186.124 444.295 171.655Z" fill="#18212E"/>
<path d="M1442.16 414.913C1442.16 434.643 1421.34 449.331 1389.33 449.331C1356.45 449.331 1334.09 434.862 1331.68 412.063H1362.37C1364.12 421.709 1373.77 427.409 1389.33 427.409C1401.83 427.409 1411.25 421.928 1411.25 414.913C1411.25 390.799 1334.53 412.063 1334.53 368C1334.53 348.708 1354.26 333.143 1386.26 333.143C1419.15 333.143 1438.66 347.393 1440.41 370.192H1409.72C1408.4 361.423 1400.51 355.285 1386.04 355.285C1373.99 355.285 1365.22 360.546 1365.22 367.78C1365.22 391.237 1442.16 367.561 1442.16 414.913Z" fill="#18212E"/>
<path d="M1310.93 292.587V446.042H1280.24V292.587H1310.93Z" fill="#18212E"/>
<path d="M1124.66 391.456C1124.66 357.915 1153.16 333.143 1191.74 333.143C1230.76 333.143 1259.04 356.6 1259.04 391.456C1259.04 425.655 1230.76 449.331 1191.74 449.331C1153.37 449.331 1124.66 424.559 1124.66 391.456ZM1155.35 391.456C1155.35 408.556 1170.91 420.832 1191.74 420.832C1213.66 420.832 1228.35 408.556 1228.35 391.456C1228.35 373.919 1213.66 361.423 1191.74 361.423C1170.69 361.423 1155.35 373.919 1155.35 391.456Z" fill="#18212E"/>
<path d="M975.869 391.456C975.869 357.915 1004.37 333.143 1042.95 333.143C1081.97 333.143 1110.25 356.6 1110.25 391.456C1110.25 425.655 1081.97 449.331 1042.95 449.331C1004.59 449.331 975.869 424.559 975.869 391.456ZM1006.56 391.456C1006.56 408.556 1022.12 420.832 1042.95 420.832C1064.87 420.832 1079.56 408.556 1079.56 391.456C1079.56 373.919 1064.87 361.423 1042.95 361.423C1021.91 361.423 1006.56 373.919 1006.56 391.456Z" fill="#18212E"/>
<path d="M824.672 446.042V292.587H903.153C936.036 292.587 963.658 314.29 963.658 346.954C963.658 377.865 934.502 401.321 903.153 401.321H855.363V446.042H824.672ZM932.967 346.954C932.967 331.828 920.252 320.867 903.153 320.867H855.363V372.603H903.153C920.033 372.603 932.967 361.423 932.967 346.954Z" fill="#18212E"/>
<line x1="813.5" y1="1" x2="813.5" y2="512" stroke="#18212E" stroke-width="3"/>
<line x1="1557" y1="281.5" x2="533" y2="281.5" stroke="#18212E" stroke-width="3"/>
<line x1="706" y1="322.5" x2="-318" y2="322.5" stroke="#18212E" stroke-width="3"/>
<path d="M1167.36 218.16V252H1162.56V210H1168.62L1183.98 246.72L1199.28 210H1205.28V252H1200.48V218.28L1186.14 252H1181.76L1167.36 218.16ZM1211.67 237.06C1211.67 227.88 1218.45 221.1 1227.45 221.1C1236.69 221.1 1243.41 227.58 1243.41 237.06C1243.41 246.42 1236.69 252.9 1227.45 252.9C1218.45 252.9 1211.67 246.12 1211.67 237.06ZM1216.47 237C1216.47 243.54 1221.21 248.34 1227.45 248.34C1234.11 248.34 1238.61 243.78 1238.61 237C1238.61 230.22 1234.05 225.6 1227.45 225.6C1221.15 225.6 1216.47 230.46 1216.47 237ZM1255.19 237.18V252H1250.39V222H1254.53L1255.13 227.94C1257.47 223.68 1261.43 221.1 1266.35 221.1C1274.09 221.1 1279.43 227.76 1279.43 237.18V252H1274.63V237.18C1274.63 230.22 1270.79 225.6 1264.91 225.6C1259.15 225.6 1255.19 230.28 1255.19 237.18ZM1317.51 238.38H1291.53C1292.07 244.56 1296.33 249.06 1302.03 249.06C1306.23 249.06 1309.65 246.9 1311.63 243.48H1316.55C1314.09 249.3 1308.75 252.9 1302.03 252.9C1293.21 252.9 1286.67 246.12 1286.67 237.06C1286.67 227.88 1293.09 221.1 1302.03 221.1C1311.15 221.1 1317.57 227.58 1317.57 237.06C1317.57 237.48 1317.51 237.9 1317.51 238.38ZM1291.53 235.62H1312.71C1312.17 229.32 1307.97 225.06 1302.03 225.06C1296.33 225.06 1292.07 229.44 1291.53 235.62ZM1333.69 226.5V237.96C1333.69 245.28 1336.51 248.34 1342.81 248.34V252.9C1332.97 252.9 1328.89 247.86 1328.89 237.96V226.5H1322.59V224.46L1331.71 215.28H1333.69V222H1342.81V226.5H1333.69ZM1350.48 211.68C1350.48 210.12 1351.5 209.1 1353 209.1C1354.56 209.1 1355.58 210.12 1355.58 211.68C1355.58 213.18 1354.56 214.2 1353 214.2C1351.5 214.2 1350.48 213.18 1350.48 211.68ZM1355.4 252H1350.6V222H1355.4V252ZM1365.18 226.68V222H1389.12V225.84L1370.52 247.26H1389.9V252H1364.46V248.16L1383.18 226.68H1365.18ZM1427.14 238.38H1401.16C1401.7 244.56 1405.96 249.06 1411.66 249.06C1415.86 249.06 1419.28 246.9 1421.26 243.48H1426.18C1423.72 249.3 1418.38 252.9 1411.66 252.9C1402.84 252.9 1396.3 246.12 1396.3 237.06C1396.3 227.88 1402.72 221.1 1411.66 221.1C1420.78 221.1 1427.2 227.58 1427.2 237.06C1427.2 237.48 1427.14 237.9 1427.14 238.38ZM1401.16 235.62H1422.34C1421.8 229.32 1417.6 225.06 1411.66 225.06C1405.96 225.06 1401.7 229.44 1401.16 235.62ZM1467.98 221.1V226.14C1459.58 226.14 1454.18 232.8 1454.18 243.48V252H1449.38V222H1453.52L1454.18 231.54C1456.7 225.06 1461.68 221.1 1467.98 221.1ZM1474.46 211.68C1474.46 210.12 1475.48 209.1 1476.98 209.1C1478.54 209.1 1479.56 210.12 1479.56 211.68C1479.56 213.18 1478.54 214.2 1476.98 214.2C1475.48 214.2 1474.46 213.18 1474.46 211.68ZM1479.38 252H1474.58V222H1479.38V252ZM1512.51 244.02C1512.51 249.06 1507.65 252.9 1500.69 252.9C1493.07 252.9 1487.73 249.66 1487.01 243.54H1491.57C1492.23 247.26 1495.35 249.24 1500.75 249.24C1504.83 249.24 1507.95 246.96 1507.95 244.08C1507.95 235.2 1487.97 241.98 1487.97 229.92C1487.97 225.06 1492.71 221.1 1499.67 221.1C1507.05 221.1 1511.73 224.64 1512.21 230.58H1507.77C1507.53 227.28 1504.95 224.7 1499.61 224.7C1495.77 224.7 1492.59 226.98 1492.59 229.86C1492.59 238.44 1512.51 231.18 1512.51 244.02ZM1524.31 239.28V252H1519.51V210H1524.31V234.84H1529.65L1539.43 222H1544.83L1533.25 237L1546.27 252H1540.63L1529.77 239.28H1524.31ZM1548.88 249.84C1548.88 248.1 1550.08 246.9 1551.82 246.9C1553.74 246.9 1554.94 248.1 1554.94 249.84C1554.94 251.76 1553.74 252.9 1551.82 252.9C1550.08 252.9 1548.88 251.76 1548.88 249.84Z" fill="#212730"/>
<circle cx="711" cy="322" r="6" fill="#18212E"/>
<circle cx="813" cy="6" r="6" fill="#18212E"/>
</svg>
